<mxfile host="app.diagrams.net" modified="2021-09-26T11:23:35.522Z" agent="5.0 (Macintosh; Intel Mac OS X 10_15_7) AppleWebKit/537.36 (KHTML, like Gecko) Chrome/93.0.4577.82 Safari/537.36" etag="i5dMXaLo3mj_BPO-58yr" version="15.3.0" type="github">
  <diagram id="pIJbFMpGUCfI7iHcjz8t" name="Page-1">
    <mxGraphModel dx="946" dy="557" grid="1" gridSize="10" guides="1" tooltips="1" connect="1" arrows="1" fold="1" page="1" pageScale="1" pageWidth="827" pageHeight="1169" math="0" shadow="0">
      <root>
        <mxCell id="0" />
        <mxCell id="1" parent="0" />
        <mxCell id="qeaLhI-CKe7F8FmQ-Sc--5" value="" style="edgeStyle=orthogonalEdgeStyle;rounded=0;orthogonalLoop=1;jettySize=auto;html=1;" edge="1" parent="1" source="qeaLhI-CKe7F8FmQ-Sc--3" target="qeaLhI-CKe7F8FmQ-Sc--4">
          <mxGeometry relative="1" as="geometry" />
        </mxCell>
        <mxCell id="qeaLhI-CKe7F8FmQ-Sc--3" value="" style="strokeWidth=2;html=1;shape=mxgraph.flowchart.start_1;whiteSpace=wrap;fillColor=#f5f5f5;strokeColor=#666666;fontColor=#333333;" vertex="1" parent="1">
          <mxGeometry x="150" y="590" width="100" height="50" as="geometry" />
        </mxCell>
        <mxCell id="qeaLhI-CKe7F8FmQ-Sc--7" value="" style="edgeStyle=orthogonalEdgeStyle;rounded=0;orthogonalLoop=1;jettySize=auto;html=1;" edge="1" parent="1" source="qeaLhI-CKe7F8FmQ-Sc--4" target="qeaLhI-CKe7F8FmQ-Sc--6">
          <mxGeometry relative="1" as="geometry" />
        </mxCell>
        <mxCell id="qeaLhI-CKe7F8FmQ-Sc--4" value="方法" style="whiteSpace=wrap;html=1;strokeWidth=2;" vertex="1" parent="1">
          <mxGeometry x="140" y="715" width="120" height="60" as="geometry" />
        </mxCell>
        <mxCell id="qeaLhI-CKe7F8FmQ-Sc--6" value="" style="ellipse;whiteSpace=wrap;html=1;strokeWidth=2;fillColor=#dae8fc;strokeColor=#6c8ebf;" vertex="1" parent="1">
          <mxGeometry x="140" y="855" width="120" height="60" as="geometry" />
        </mxCell>
      </root>
    </mxGraphModel>
  </diagram>
</mxfile>
